<svg width="48" height="48" viewBox="0 0 48 48" fill="none" xmlns="http://www.w3.org/2000/svg">
<path fill-rule="evenodd" clip-rule="evenodd" d="M48 5.982C48 2.679 45.315 0 42.018 0H5.982C2.679 0 0 2.685 0 5.982V42.018C0.000793457 43.6043 0.631294 45.1254 1.75297 46.247C2.87464 47.3687 4.39572 47.9992 5.982 48H42.018C43.6043 47.9992 45.1254 47.3687 46.247 46.247C47.3687 45.1254 47.9992 43.6043 48 42.018V5.982ZM41.781 26.781C41.8506 26.8508 41.9058 26.9336 41.9433 27.0247C41.9809 27.1158 42.0002 27.2134 42 27.312V37.5C42 38.6935 41.5259 39.8381 40.682 40.682C39.8381 41.5259 38.6935 42 37.5 42H10.5C9.30653 42 8.16193 41.5259 7.31802 40.682C6.47411 39.8381 6 38.6935 6 37.5V24.375C6 24.2586 6.02711 24.1437 6.07918 24.0396C6.13125 23.9354 6.20686 23.8449 6.3 23.775L18 15L30 24L36 21L41.781 26.781ZM37.5 15C36.9091 15 36.3239 14.8836 35.7779 14.6575C35.232 14.4313 34.7359 14.0998 34.318 13.682C33.9002 13.2641 33.5687 12.768 33.3425 12.2221C33.1164 11.6761 33 11.0909 33 10.5C33 9.90905 33.1164 9.32389 33.3425 8.77792C33.5687 8.23196 33.9002 7.73588 34.318 7.31802C34.7359 6.90016 35.232 6.56869 35.7779 6.34254C36.3239 6.1164 36.9091 6 37.5 6C38.6935 6 39.8381 6.47411 40.682 7.31802C41.5259 8.16193 42 9.30653 42 10.5C42 11.6935 41.5259 12.8381 40.682 13.682C39.8381 14.5259 38.6935 15 37.5 15Z" fill="#333333"/>
</svg>
