<svg width="12" height="12" viewBox="0 0 12 12" fill="none" xmlns="http://www.w3.org/2000/svg">
<path fill-rule="evenodd" clip-rule="evenodd" d="M4.48639 4.191C3.84073 4.36198 3.22943 4.64311 2.67939 5.022C2.23139 5.328 1.90839 5.626 1.72139 5.834C2.0393 6.20209 2.39454 6.53621 2.78139 6.831C3.74939 7.568 4.82739 8 5.99739 8C7.18639 8 8.26939 7.593 9.23239 6.902C9.61085 6.63063 9.96006 6.32063 10.2744 5.977C9.98271 5.64725 9.65575 5.35048 9.29939 5.092C8.76521 4.69795 8.16617 4.40046 7.52939 4.213C7.77512 4.50552 7.93192 4.8623 7.98126 5.24113C8.0306 5.61996 7.9704 6.005 7.8078 6.3507C7.64519 6.6964 7.38697 6.9883 7.06368 7.19186C6.7404 7.39542 6.36558 7.50213 5.98356 7.49937C5.60153 7.49661 5.22829 7.38449 4.90798 7.17628C4.58768 6.96807 4.33371 6.67247 4.17611 6.32446C4.01852 5.97644 3.96389 5.59057 4.0187 5.21249C4.07351 4.83441 4.23546 4.47994 4.48539 4.191H4.48639ZM0.372387 6.548C0.0163873 6.134 0.0263873 5.458 0.411387 5.067C0.411387 5.067 2.34139 2.5 6.00039 2.5C9.66039 2.5 11.6204 5.258 11.6204 5.258C11.9794 5.668 11.9804 6.336 11.5904 6.742C11.5904 6.742 9.49839 9.5 5.99839 9.5C2.49839 9.5 0.372387 6.548 0.372387 6.548Z" fill="#333333"/>
</svg>
