<svg width="12" height="12" viewBox="0 0 12 12" fill="none" xmlns="http://www.w3.org/2000/svg">
<path fill-rule="evenodd" clip-rule="evenodd" d="M7.07556 3.33225L7.84128 2.43891C7.93438 2.33029 8.08258 2.33249 8.18228 2.43219L8.32125 2.57116C8.42364 2.67355 8.42991 2.8355 8.34128 2.93891L2.66225 9.56444C2.57763 9.66317 2.42095 9.67086 2.32125 9.57117L2.18228 9.43219C2.07989 9.3298 2.07362 9.16785 2.16225 9.06444L2.71381 8.42096C1.21615 7.64568 0.340562 6.6076 0.340562 6.6076C0.153449 6.41103 0.1424 6.09038 0.337238 5.88382C0.337238 5.88382 2.43288 3.25168 6.00307 3.25168C6.377 3.25168 6.73473 3.28055 7.07556 3.33225V3.33225ZM4.99125 7.97798C5.28778 8.15194 5.63313 8.25168 6.00176 8.25168C7.10633 8.25168 8.00176 7.35625 8.00176 6.25168C8.00176 5.78761 7.84371 5.36046 7.5785 5.02112L8.67458 3.76846C10.5939 4.53499 11.6666 5.88382 11.6666 5.88382C11.8517 6.08698 11.854 6.41297 11.6506 6.61954C11.6506 6.61954 9.43037 9.25168 6.00056 9.25168C5.32165 9.25168 4.68974 9.14808 4.11283 8.98189L4.99125 7.97798ZM6.89521 5.80202C6.96337 5.9372 7.00176 6.08995 7.00176 6.25168C7.00176 6.80396 6.55405 7.25168 6.00176 7.25168C5.88721 7.25168 5.77715 7.23241 5.67465 7.19695L6.89521 5.80202Z" fill="#333333"/>
</svg>
