<svg width="28" height="28" viewBox="0 0 28 28" fill="none" xmlns="http://www.w3.org/2000/svg">
<g id="Icon">
<path id="Vector" fill-rule="evenodd" clip-rule="evenodd" d="M11.2399 5.70291C11.2399 4.73691 12.0396 3.95291 12.9986 3.95291H23.5861C24.0502 3.95291 24.4954 4.13728 24.8235 4.46547C25.1517 4.79366 25.3361 5.23878 25.3361 5.70291C25.3361 6.16704 25.1517 6.61215 24.8235 6.94034C24.4954 7.26853 24.0502 7.45291 23.5861 7.45291H12.9986C12.7681 7.45406 12.5396 7.40965 12.3262 7.32222C12.1129 7.23479 11.9189 7.10606 11.7555 6.94345C11.5921 6.78083 11.4624 6.58752 11.3739 6.37463C11.2854 6.16174 11.2399 5.93346 11.2399 5.70291ZM11.2399 14.4529C11.2399 13.4869 12.0396 12.7029 12.9986 12.7029H23.5861C24.0502 12.7029 24.4954 12.8873 24.8235 13.2155C25.1517 13.5437 25.3361 13.9888 25.3361 14.4529C25.3361 14.917 25.1517 15.3622 24.8235 15.6903C24.4954 16.0185 24.0502 16.2029 23.5861 16.2029H12.9986C12.7681 16.2041 12.5396 16.1596 12.3262 16.0722C12.1129 15.9848 11.9189 15.8561 11.7555 15.6934C11.5921 15.5308 11.4624 15.3375 11.3739 15.1246C11.2854 14.9117 11.2399 14.6835 11.2399 14.4529ZM11.2399 23.2029C11.2399 22.2369 12.0396 21.4529 12.9986 21.4529H23.5861C24.0502 21.4529 24.4954 21.6373 24.8235 21.9655C25.1517 22.2937 25.3361 22.7388 25.3361 23.2029C25.3361 23.667 25.1517 24.1122 24.8235 24.4403C24.4954 24.7685 24.0502 24.9529 23.5861 24.9529H12.9986C12.7681 24.9541 12.5396 24.9096 12.3262 24.8222C12.1129 24.7348 11.9189 24.6061 11.7555 24.4434C11.5921 24.2808 11.4624 24.0875 11.3739 23.8746C11.2854 23.6617 11.2399 23.4335 11.2399 23.2029ZM6.58486 7.71541C6.25773 8.03969 5.81594 8.22192 5.35532 8.22258C4.89471 8.22323 4.4524 8.04226 4.12435 7.71891L3.01135 6.62166C2.90164 6.5135 2.81443 6.38469 2.75474 6.24266C2.69505 6.10063 2.66407 5.94819 2.66358 5.79413C2.66309 5.64006 2.69311 5.48743 2.7519 5.34502C2.81068 5.20262 2.89708 5.07326 3.0061 4.96441L3.0411 4.92941C3.14393 4.82655 3.26654 4.7456 3.40152 4.69144C3.5365 4.63729 3.68106 4.61105 3.82646 4.61433C3.97187 4.6176 4.1151 4.65031 4.24751 4.71048C4.37992 4.77064 4.49876 4.85703 4.59685 4.96441L4.7281 5.10791C4.80873 5.19619 4.90659 5.267 5.01565 5.31599C5.12471 5.36498 5.24265 5.39111 5.36219 5.39275C5.48174 5.39439 5.60035 5.37151 5.71071 5.32553C5.82107 5.27955 5.92084 5.21144 6.00385 5.12541L8.41011 2.62991C8.51651 2.51987 8.64373 2.43209 8.78437 2.37166C8.925 2.31123 9.07625 2.27935 9.22931 2.27788C9.38237 2.27642 9.5342 2.30539 9.67596 2.36312C9.81773 2.42085 9.94661 2.50618 10.0551 2.61416C10.1645 2.72281 10.2514 2.85205 10.3106 2.99441C10.3699 3.13677 10.4004 3.28945 10.4004 3.44366C10.4004 3.59786 10.3699 3.75054 10.3106 3.89291C10.2514 4.03527 10.1645 4.1645 10.0551 4.27316L6.58486 7.71541ZM6.58486 16.4654C6.25773 16.7897 5.81594 16.9719 5.35532 16.9726C4.89471 16.9732 4.4524 16.7923 4.12435 16.4689L3.01135 15.3717C2.90164 15.2635 2.81443 15.1347 2.75474 14.9927C2.69505 14.8506 2.66407 14.6982 2.66358 14.5441C2.66309 14.3901 2.69311 14.2374 2.7519 14.095C2.81068 13.9526 2.89708 13.8233 3.0061 13.7144L3.0411 13.6794C3.14393 13.5765 3.26654 13.4956 3.40152 13.4414C3.5365 13.3873 3.68106 13.3611 3.82646 13.3643C3.97187 13.3676 4.1151 13.4003 4.24751 13.4605C4.37992 13.5206 4.49876 13.607 4.59685 13.7144L4.7281 13.8579C4.80873 13.9462 4.90659 14.017 5.01565 14.066C5.12471 14.115 5.24265 14.1411 5.36219 14.1427C5.48174 14.1444 5.60035 14.1215 5.71071 14.0755C5.82107 14.0295 5.92084 13.9614 6.00385 13.8754L8.41011 11.3799C8.51683 11.2693 8.64456 11.1811 8.7858 11.1205C8.92705 11.0599 9.07896 11.0281 9.23266 11.027C9.38635 11.0258 9.53872 11.0554 9.68085 11.1139C9.82298 11.1724 9.952 11.2587 10.0604 11.3677C10.2789 11.5881 10.401 11.8864 10.3997 12.1969C10.3984 12.5073 10.2738 12.8045 10.0534 13.0232L6.5866 16.4654H6.58486ZM6.58486 25.2154C6.25773 25.5397 5.81594 25.7219 5.35532 25.7226C4.89471 25.7232 4.4524 25.5423 4.12435 25.2189L3.01135 24.1217C2.90164 24.0135 2.81443 23.8847 2.75474 23.7427C2.69505 23.6006 2.66407 23.4482 2.66358 23.2941C2.66309 23.1401 2.69311 22.9874 2.7519 22.845C2.81068 22.7026 2.89708 22.5733 3.0061 22.4644L3.0411 22.4294C3.14393 22.3265 3.26654 22.2456 3.40152 22.1914C3.5365 22.1373 3.68106 22.1111 3.82646 22.1143C3.97187 22.1176 4.1151 22.1503 4.24751 22.2105C4.37992 22.2706 4.49876 22.357 4.59685 22.4644L4.7281 22.6079C4.80873 22.6962 4.90659 22.767 5.01565 22.816C5.12471 22.865 5.24265 22.8911 5.36219 22.8927C5.48174 22.8944 5.60035 22.8715 5.71071 22.8255C5.82107 22.7795 5.92084 22.7114 6.00385 22.6254L8.41011 20.1299C8.51683 20.0193 8.64456 19.9311 8.7858 19.8705C8.92705 19.8099 9.07896 19.7781 9.23266 19.777C9.38635 19.7758 9.53872 19.8054 9.68085 19.8639C9.82298 19.9224 9.952 20.0087 10.0604 20.1177C10.2789 20.3381 10.401 20.6364 10.3997 20.9469C10.3984 21.2573 10.2738 21.5545 10.0534 21.7732L6.5866 25.2154H6.58486Z" fill="white" fill-opacity="current"/>
</g>
</svg>
