<svg width="59" height="52" viewBox="0 0 59 52" fill="none" xmlns="http://www.w3.org/2000/svg">
<path d="M29.2783 22.2871L35.6348 33.5576L29.2783 44.8281H29.2742V52.0001H34.2227L44.6081 33.587L34.2227 15.1719H22.8623V22.2871H29.2783Z" fill="#005950"/>
<path d="M29.5658 29.713L23.2093 18.4425L29.5658 7.17405V0H24.6214L14.2339 18.4152L24.6214 36.8282H35.9818V29.713H29.5658Z" fill="#005950"/>
<path d="M43.5117 22.2871L49.8681 33.5576L43.5117 44.8281H30.2487V52.0001H48.4561L58.8415 33.587L48.4561 15.1719H27.6831V22.2871H43.5117Z" fill="#005950"/>
<path d="M38.2085 22.2766L34.2 15.1719H25.0317L23.1865 18.4427L25.3498 22.2766H38.2085Z" fill="url(#paint0_linear_1126_605)"/>
<path d="M38.3403 22.4717H29.3813L33.4678 29.7151H42.4268L38.3403 22.4717Z" fill="url(#paint1_linear_1126_605)"/>
<path d="M38.6787 44.0736H29.7197L33.8062 36.8281H42.7652L38.6787 44.0736Z" fill="url(#paint2_linear_1126_605)"/>
<path d="M25.4667 14.3607H16.5098L20.5962 7.11523H29.5531L25.4667 14.3607Z" fill="url(#paint3_linear_1126_605)"/>
<path d="M25.4813 22.4717H16.5244L20.6109 29.7151H29.5678L25.4813 22.4717Z" fill="url(#paint4_linear_1126_605)"/>
<path d="M42.4264 29.7151V29.713H15.3319L8.97335 18.4425L15.3319 7.17405H29.5657V0H10.3875L0 18.4152L10.3875 36.8282H42.4264H42.765L44.6082 33.5868L42.4264 29.7151Z" fill="url(#paint5_linear_1126_605)"/>
<defs>
<linearGradient id="paint0_linear_1126_605" x1="23.1865" y1="18.7242" x2="38.2085" y2="18.7242" gradientUnits="userSpaceOnUse">
<stop stop-color="#03453E"/>
<stop offset="0.11" stop-color="#014D45"/>
<stop offset="0.32" stop-color="#00564D"/>
<stop offset="0.62" stop-color="#005950"/>
</linearGradient>
<linearGradient id="paint1_linear_1126_605" x1="35.9041" y1="22.4717" x2="35.9041" y2="29.7151" gradientUnits="userSpaceOnUse">
<stop stop-color="#005950"/>
<stop offset="1" stop-color="#03463F"/>
</linearGradient>
<linearGradient id="paint2_linear_1126_605" x1="36.2424" y1="44.0715" x2="36.2424" y2="36.8281" gradientUnits="userSpaceOnUse">
<stop stop-color="#005950"/>
<stop offset="1" stop-color="#03463F"/>
</linearGradient>
<linearGradient id="paint3_linear_1126_605" x1="23.0325" y1="14.3607" x2="23.0325" y2="7.11523" gradientUnits="userSpaceOnUse">
<stop stop-color="#005950"/>
<stop offset="1" stop-color="#015148"/>
</linearGradient>
<linearGradient id="paint4_linear_1126_605" x1="23.0451" y1="22.4717" x2="23.0451" y2="29.7172" gradientUnits="userSpaceOnUse">
<stop stop-color="#005950"/>
<stop offset="1" stop-color="#015148"/>
</linearGradient>
<linearGradient id="paint5_linear_1126_605" x1="4.99363" y1="9.5605" x2="45.3271" y2="32.3122" gradientUnits="userSpaceOnUse">
<stop stop-color="#007C6A"/>
<stop offset="1" stop-color="#005950"/>
</linearGradient>
</defs>
</svg>
