<svg width="20" height="20" viewBox="0 0 20 20" fill="none" xmlns="http://www.w3.org/2000/svg">
<path fill-rule="evenodd" clip-rule="evenodd" d="M11.875 8.125V1.5625C11.875 1.045 11.455 0.625 10.9375 0.625H9.0625C8.545 0.625 8.125 1.045 8.125 1.5625V8.125H1.5625C1.045 8.125 0.625 8.545 0.625 9.0625V10.9375C0.625 11.455 1.045 11.875 1.5625 11.875H8.125V18.4375C8.125 18.955 8.545 19.375 9.0625 19.375H10.9375C11.455 19.375 11.875 18.955 11.875 18.4375V11.875H18.4375C18.955 11.875 19.375 11.455 19.375 10.9375V9.0625C19.375 8.545 18.955 8.125 18.4375 8.125H11.875Z" fill="#005950"/>
</svg>
