<svg width="26" height="26" viewBox="0 0 26 26" fill="none" xmlns="http://www.w3.org/2000/svg">
<g id="setting">
<path id="Vector" fill-rule="evenodd" clip-rule="evenodd" d="M12.8637 17.4974C11.6217 17.4599 10.5132 16.9229 9.72418 16.0844C9.72268 16.0844 9.72268 16.0829 9.72268 16.0829C8.93369 15.2444 8.46419 14.1044 8.50169 12.8624C8.53919 11.6204 9.07769 10.5119 9.91619 9.72287C10.7547 8.93237 11.8947 8.46437 13.1367 8.50187C14.3787 8.53937 15.4872 9.07637 16.2762 9.91487H16.2777C17.0667 10.7549 17.5362 11.8934 17.4987 13.1354C17.4597 14.3774 16.9227 15.4874 16.0842 16.2764C15.2457 17.0654 14.1057 17.5349 12.8637 17.4974ZM24.4407 11.7254L21.7917 11.1104C21.5982 10.2119 21.2727 9.36437 20.8332 8.58587L22.4097 6.36887C22.6182 6.07787 22.5897 5.68037 22.3452 5.41937L21.1317 4.13087C20.8872 3.86987 20.4927 3.81887 20.1882 4.00787L17.8797 5.44787C17.1297 4.96187 16.3032 4.58537 15.4182 4.33937L14.9652 1.65737C14.9052 1.30487 14.6052 1.04237 14.2482 1.03187L12.4797 0.977867C12.1212 0.967367 11.8062 1.21037 11.7252 1.55837L11.1117 4.20887C10.2132 4.40087 9.36569 4.72637 8.58569 5.16587L6.36869 3.58937C6.07769 3.38237 5.68019 3.40937 5.42069 3.65387L4.13069 4.86737C3.87119 5.11187 3.82019 5.50787 4.00919 5.81087L5.44919 8.11937C4.96319 8.86937 4.58669 9.69737 4.33919 10.5824L1.65719 11.0339C1.30469 11.0939 1.04369 11.3939 1.03169 11.7509L0.979185 13.5209C0.967185 13.8779 1.21019 14.1929 1.55969 14.2739L4.20869 14.8874C4.40219 15.7859 4.72769 16.6349 5.16719 17.4134L3.58919 19.6304C3.38219 19.9214 3.40919 20.3189 3.65519 20.5784L4.86869 21.8684C5.11319 22.1279 5.50769 22.1804 5.81069 21.9899L8.11918 20.5499C8.87069 21.0374 9.69719 21.4139 10.5822 21.6599L11.0352 24.3419C11.0937 24.6944 11.3937 24.9569 11.7522 24.9674L13.5207 25.0214C13.8792 25.0319 14.1942 24.7889 14.2752 24.4409L14.8887 21.7904C15.7872 21.5984 16.6347 21.2729 17.4132 20.8319L19.6317 22.4099C19.9227 22.6169 20.3187 22.5899 20.5797 22.3439L21.8682 21.1319C22.1292 20.8859 22.1802 20.4914 21.9912 20.1884L20.5512 17.8799C21.0372 17.1284 21.4137 16.3019 21.6597 15.4169L24.3432 14.9654C24.6957 14.9054 24.9567 14.6054 24.9672 14.2484L25.0212 12.4784C25.0317 12.1214 24.7887 11.8064 24.4407 11.7254Z" fill="#333333"/>
</g>
</svg>
