<svg width="28" height="28" viewBox="0 0 28 28" fill="none" xmlns="http://www.w3.org/2000/svg">
<g id="Icon">
<path id="Vector" fill-rule="evenodd" clip-rule="evenodd" d="M14 28C21.7315 28 28 21.7315 28 14C28 6.2685 21.7315 0 14 0C6.2685 0 0 6.2685 0 14C0 21.7315 6.2685 28 14 28ZM14 24.5C8.211 24.5 3.5 19.789 3.5 14C3.5 8.211 8.211 3.5 14 3.5C19.789 3.5 24.5 8.211 24.5 14C24.5 19.789 19.789 24.5 14 24.5ZM8.75 11.375C7.93198 12.3944 7.875 13.125 9.625 13.125H11.375V19.25C11.375 20.2163 12.25 21.875 13.9992 21.875C15.7484 21.875 16.625 20.2232 16.625 19.25V13.125H18.375C20.125 13.125 20.0637 12.3922 19.25 11.375C15.75 7 14.5919 5.87566 14.5919 5.87566C14.2646 5.53012 13.7311 5.52966 13.4093 5.87566C13.4093 5.87566 12.2606 7 8.75 11.375Z" fill="white" fill-opacity="current"/>
</g>
</svg>
