<svg width="28" height="29" viewBox="0 0 28 29" fill="none" xmlns="http://www.w3.org/2000/svg">
<path fill-rule="evenodd" clip-rule="evenodd" d="M22.6697 8.36339C23.0014 8.02759 23.0011 7.46195 22.6561 7.11284L21.4303 5.87204C21.0706 5.50799 20.5322 5.51679 20.1948 5.85833L13.9999 12.1288L7.80496 5.85833C7.4732 5.52253 6.91438 5.52292 6.56947 5.87204L5.34362 7.11284C4.98396 7.47688 4.99265 8.02185 5.33008 8.36339L11.525 14.6339L5.33008 20.9044C4.99832 21.2402 4.99871 21.8058 5.34362 22.1549L6.56947 23.3957C6.92913 23.7598 7.46752 23.751 7.80496 23.4094L13.9999 17.1389L20.1948 23.4094C20.5266 23.7452 21.0854 23.7448 21.4303 23.3957L22.6561 22.1549C23.0158 21.7909 23.0071 21.2459 22.6697 20.9044L16.4748 14.6339L22.6697 8.36339Z" fill="white"/>
</svg>
